<svg width="512" height="512" viewBox="0 0 512 512" fill="none" xmlns="http://www.w3.org/2000/svg">
<rect width="512" height="512" fill="#383838"/>
<path d="M207.855 45.6465C227.948 45.6465 245.25 49.1814 259.762 56.2511C274.46 63.1349 285.715 73.0883 293.529 86.1116C301.529 99.1349 305.529 114.856 305.529 133.274C305.529 157.46 297.622 177.926 281.808 194.67C266.18 211.414 246.274 226.67 222.087 240.437L335.39 350.391C345.622 338.484 353.994 324.716 360.506 309.088C367.018 293.274 372.506 276.158 376.971 257.74H423.855C417.901 282.298 410.18 304.902 400.692 325.553C391.39 346.205 379.669 364.344 365.529 379.972L447.297 460.065H384.506L333.994 410.67C322.087 421.646 309.25 431.321 295.483 439.693C281.901 447.879 266.739 454.298 249.994 458.949C233.436 463.414 214.46 465.646 193.064 465.646C167.018 465.646 144.413 461.367 125.25 452.809C106.087 444.251 91.2037 431.693 80.5991 415.135C70.1805 398.577 64.9712 378.298 64.9712 354.298C64.9712 334.577 68.5991 317.646 75.8549 303.507C83.1107 289.367 93.4363 276.809 106.832 265.833C120.227 254.856 136.227 244.158 154.832 233.74C146.087 224.065 137.808 214.298 129.994 204.437C122.18 194.391 115.855 183.693 111.018 172.344C106.18 160.809 103.762 148.158 103.762 134.391C103.762 115.786 107.948 99.879 116.32 86.6697C124.878 73.4604 136.878 63.3209 152.32 56.2511C167.948 49.1814 186.46 45.6465 207.855 45.6465ZM182.739 263.042C168.227 271.414 155.762 279.693 145.343 287.879C135.111 296.065 127.204 305.274 121.622 315.507C116.227 325.74 113.529 338.112 113.529 352.623C113.529 374.391 120.878 391.879 135.576 405.088C150.274 418.112 169.901 424.623 194.46 424.623C219.762 424.623 241.25 420.437 258.925 412.065C276.785 403.693 291.948 393.553 304.413 381.646L182.739 263.042ZM206.18 83.879C189.25 83.879 175.483 88.3442 164.878 97.2744C154.46 106.019 149.25 118.298 149.25 134.112C149.25 148.251 153.064 161.274 160.692 173.181C168.32 185.088 179.204 198.298 193.343 212.809C216.599 199.972 233.436 187.6 243.855 175.693C254.46 163.6 259.762 149.46 259.762 133.274C259.762 118.577 254.832 106.67 244.971 97.5535C235.297 88.4372 222.367 83.879 206.18 83.879Z" fill="#BBFE01"/>
</svg>
